<svg width="454" height="64" viewBox="0 0 454 64" fill="none" xmlns="http://www.w3.org/2000/svg">
<path d="M0 36.8748V26.3332L28.9792 16.354V22.1873L2.08333 31.1873V32.0207L28.9792 41.0415V46.854L0 36.8748Z" fill="currentColor"/>
<path d="M57.1997 51.4375C59.1841 51.4375 60.8768 51.1042 62.283 50.4375C63.6997 49.7604 64.856 48.8542 65.7622 47.7292C66.6632 46.5938 67.3299 45.3021 67.7622 43.8542C68.2049 42.3958 68.4289 40.8542 68.4289 39.2292V38.3958H74.2414V39.2292C74.2414 41.6875 73.8716 43.9948 73.1372 46.1458C72.3976 48.2865 71.3143 50.1563 69.8872 51.75C68.4549 53.349 66.6685 54.599 64.533 55.5C62.408 56.401 59.9601 56.8542 57.1997 56.8542C51.8351 56.8542 47.6476 55.1667 44.6372 51.7917C41.6372 48.4167 40.1372 43.4948 40.1372 37.0208V26.2083C40.1372 19.9167 41.6372 15.0417 44.6372 11.5833C47.6476 8.11458 51.8351 6.375 57.1997 6.375C59.9601 6.375 62.408 6.82813 64.533 7.72917C66.6685 8.63542 68.4549 9.88542 69.8872 11.4792C71.3143 13.0625 72.3976 14.9323 73.1372 17.0833C73.8716 19.2396 74.2414 21.5365 74.2414 23.9792V24.8125H68.4289V23.9792C68.3716 22.4115 68.1216 20.8906 67.6789 19.4167C67.2466 17.9323 66.5799 16.625 65.6789 15.5C64.7726 14.3646 63.6268 13.4583 62.2414 12.7917C60.8664 12.1146 59.1841 11.7708 57.1997 11.7708C53.4497 11.7708 50.6372 13.1406 48.7622 15.875C46.8976 18.599 45.9705 22.1823 45.9705 26.625V36.6042C45.9705 41.3698 46.8976 45.0365 48.7622 47.6042C50.6372 50.1615 53.4497 51.4375 57.1997 51.4375Z" fill="currentColor"/>
<path d="M116.608 39.1043C116.608 41.9689 116.134 44.495 115.191 46.6877C114.243 48.8856 112.983 50.7293 111.399 52.2293C109.826 53.7293 107.988 54.8752 105.878 55.6668C103.779 56.4585 101.597 56.8543 99.3367 56.8543C97.0294 56.8543 94.8367 56.4585 92.7533 55.6668C90.67 54.8752 88.8419 53.7293 87.2742 52.2293C85.7013 50.7293 84.446 48.8856 83.5033 46.6877C82.5554 44.495 82.0867 41.9689 82.0867 39.1043V38.271C82.0867 35.4533 82.5554 32.9481 83.5033 30.7502C84.446 28.5575 85.7169 26.6981 87.3158 25.1668C88.9096 23.6408 90.7429 22.4897 92.8158 21.7085C94.8992 20.9168 97.071 20.521 99.3367 20.521C101.597 20.521 103.774 20.9168 105.858 21.7085C107.941 22.4897 109.779 23.6408 111.378 25.1668C112.972 26.6981 114.243 28.5575 115.191 30.7502C116.134 32.9481 116.608 35.4533 116.608 38.271V39.1043ZM99.3367 51.7085C101.003 51.7085 102.535 51.4272 103.941 50.8543C105.358 50.271 106.592 49.4272 107.649 48.3127C108.717 47.2033 109.55 45.8752 110.149 44.3335C110.759 42.7814 111.066 41.0366 111.066 39.1043V38.271C111.066 36.4272 110.759 34.7293 110.149 33.1877C109.55 31.6356 108.717 30.3022 107.649 29.1877C106.592 28.0783 105.347 27.2085 103.92 26.5835C102.488 25.9585 100.962 25.646 99.3367 25.646C97.7221 25.646 96.2013 25.9585 94.7742 26.5835C93.3419 27.2085 92.0919 28.0783 91.0242 29.1877C89.9513 30.3022 89.1179 31.6356 88.5242 33.1877C87.9252 34.7293 87.6283 36.4272 87.6283 38.271V39.1043C87.6283 41.0366 87.9252 42.7814 88.5242 44.3335C89.1179 45.8752 89.9513 47.2033 91.0242 48.3127C92.0919 49.4272 93.3263 50.271 94.7325 50.8543C96.1492 51.4272 97.6804 51.7085 99.3367 51.7085Z" fill="currentColor"/>
<path d="M153.203 50.6043H152.39C151.833 51.6772 151.125 52.6043 150.265 53.396C149.401 54.1772 148.474 54.8231 147.474 55.3335C146.484 55.8335 145.437 56.2085 144.328 56.4585C143.229 56.7189 142.166 56.8543 141.14 56.8543C138.833 56.8543 136.687 56.4585 134.703 55.6668C132.713 54.8752 130.963 53.745 129.453 52.271C127.953 50.7866 126.771 48.9481 125.911 46.7502C125.062 44.5575 124.64 42.0522 124.64 39.2293V38.1252C124.64 35.3491 125.078 32.8647 125.953 30.6668C126.838 28.4741 128.021 26.6252 129.495 25.1252C130.979 23.6252 132.713 22.4897 134.703 21.7085C136.687 20.9168 138.791 20.521 141.015 20.521C143.359 20.521 145.562 21.0418 147.62 22.0835C149.687 23.1147 151.276 24.7189 152.39 26.896H153.203V7.3335H158.62V55.8752H153.203V50.6043ZM141.703 51.7085C143.328 51.7085 144.828 51.4116 146.203 50.8127C147.588 50.2189 148.807 49.3647 149.849 48.2502C150.89 47.1408 151.708 45.8127 152.307 44.271C152.901 42.7189 153.203 40.995 153.203 39.1043V38.271C153.203 36.4272 152.901 34.7293 152.307 33.1877C151.708 31.6356 150.89 30.3022 149.849 29.1877C148.807 28.0783 147.578 27.2085 146.161 26.5835C144.755 25.9585 143.271 25.646 141.703 25.646C140.088 25.646 138.578 25.9533 137.161 26.5627C135.755 27.1616 134.536 28.0158 133.495 29.1252C132.453 30.2241 131.64 31.5366 131.057 33.0627C130.484 34.5939 130.203 36.2814 130.203 38.1252V39.2293C130.203 41.1772 130.484 42.9116 131.057 44.4377C131.64 45.9689 132.453 47.271 133.495 48.3543C134.536 49.4377 135.745 50.271 137.12 50.8543C138.505 51.4272 140.036 51.7085 141.703 51.7085Z" fill="currentColor"/>
<path d="M172.965 40.3543C173.101 43.771 174.163 46.521 176.153 48.6043C178.137 50.6772 180.913 51.7085 184.486 51.7085C186.095 51.7085 187.496 51.5314 188.694 51.1668C189.903 50.7918 190.929 50.2866 191.778 49.646C192.637 48.995 193.33 48.245 193.861 47.396C194.403 46.5366 194.83 45.62 195.153 44.646L200.278 46.021C199.319 49.2189 197.533 51.8231 194.924 53.8335C192.309 55.8491 188.783 56.8543 184.34 56.8543C181.892 56.8543 179.637 56.422 177.569 55.5627C175.512 54.7033 173.741 53.4897 172.257 51.9168C170.783 50.3491 169.632 48.4793 168.799 46.3127C167.976 44.1356 167.569 41.7293 167.569 39.1043V37.4377C167.569 35.0366 167.991 32.7918 168.84 30.7085C169.7 28.6252 170.887 26.8335 172.403 25.3335C173.929 23.8335 175.72 22.6616 177.778 21.8127C179.845 20.9533 182.08 20.521 184.486 20.521C187.304 20.521 189.741 21.0418 191.799 22.0835C193.851 23.1147 195.538 24.3908 196.861 25.9168C198.179 27.4481 199.142 29.1147 199.757 30.9168C200.382 32.7241 200.694 34.3908 200.694 35.9168V40.3543H172.965ZM184.486 25.646C182.955 25.646 181.533 25.8908 180.215 26.3752C178.892 26.8647 177.736 27.5418 176.736 28.4168C175.746 29.2918 174.944 30.3231 174.319 31.5002C173.694 32.6825 173.288 33.9689 173.111 35.3543H195.299C195.2 33.87 194.84 32.5314 194.215 31.3335C193.59 30.1252 192.778 29.1147 191.778 28.2918C190.788 27.4585 189.658 26.8127 188.382 26.3543C187.116 25.8856 185.819 25.646 184.486 25.646Z" fill="currentColor"/>
<path d="M208.602 7.3335H219.706L226.206 53.3752H227.04L233.561 7.3335H244.665V55.8752H239.248V9.8335H238.415L231.894 55.8752H221.352L214.852 9.8335H214.019V55.8752H208.602V7.3335Z" fill="currentColor"/>
<path d="M278.844 50.0418H278.01C276.896 52.3647 275.354 54.0783 273.385 55.1877C271.427 56.297 269.364 56.8543 267.198 56.8543C264.916 56.8543 262.807 56.4689 260.864 55.7085C258.932 54.9481 257.239 53.8127 255.781 52.3127C254.323 50.8022 253.177 48.9585 252.344 46.7918C251.51 44.6252 251.094 42.1043 251.094 39.2293V38.1252C251.094 35.3075 251.51 32.8127 252.344 30.646C253.177 28.4689 254.323 26.6252 255.781 25.1252C257.239 23.6252 258.932 22.4897 260.864 21.7085C262.807 20.9168 264.87 20.521 267.052 20.521C269.411 20.521 271.552 21.0418 273.469 22.0835C275.385 23.1147 276.896 24.7189 278.01 26.896H278.844V21.4793H284.239V48.8127C284.239 50.1877 284.864 50.8752 286.114 50.8752H287.844V55.8752H284.177C282.604 55.8752 281.323 55.37 280.323 54.3543C279.333 53.3439 278.844 52.0418 278.844 50.4585V50.0418ZM267.739 51.7085C269.364 51.7085 270.854 51.4116 272.219 50.8127C273.578 50.2189 274.745 49.3647 275.719 48.2502C276.687 47.1408 277.453 45.8127 278.01 44.271C278.562 42.7189 278.844 40.995 278.844 39.1043V38.271C278.844 36.4272 278.562 34.7293 278.01 33.1877C277.453 31.6356 276.677 30.3022 275.677 29.1877C274.687 28.0783 273.51 27.2085 272.135 26.5835C270.771 25.9585 269.307 25.646 267.739 25.646C266.125 25.646 264.646 25.9533 263.302 26.5627C261.969 27.1616 260.802 28.0002 259.802 29.0835C258.812 30.1668 258.041 31.4897 257.489 33.0418C256.932 34.5835 256.656 36.2814 256.656 38.1252V39.2293C256.656 43.1616 257.682 46.2241 259.739 48.4168C261.791 50.6147 264.458 51.7085 267.739 51.7085Z" fill="currentColor"/>
<path d="M294.356 21.4793H306.835V26.0627H307.668C308.553 24.1772 309.803 22.7814 311.418 21.8752C313.043 20.9741 314.887 20.521 316.96 20.521C320.428 20.521 323.231 21.6564 325.356 23.9168C327.481 26.1825 328.611 29.4897 328.751 33.8335L323.064 34.6668C323.064 31.4741 322.298 29.1772 320.772 27.771C319.241 26.3543 317.376 25.646 315.168 25.646C313.736 25.646 312.501 25.9272 311.46 26.4793C310.418 27.0366 309.548 27.8022 308.856 28.771C308.158 29.745 307.647 30.8752 307.314 32.1668C306.991 33.4585 306.835 34.8491 306.835 36.3335V50.8752H315.585V55.8752H293.522V50.8752H301.439V26.4793H294.356V21.4793Z" fill="currentColor"/>
<path d="M347.618 35.771H348.784L361.888 21.4793H368.555V21.896L354.263 37.646V38.896L370.201 55.4585V55.8752H363.555L348.93 40.7502H347.618V55.8752H342.201V7.3335H347.618V35.771Z" fill="currentColor"/>
<path d="M404.046 0L408.901 1.52083L388.713 63.2292L383.796 61.7083L404.046 0Z" fill="currentColor"/>
<path d="M424.288 46.854V41.0415L451.183 32.0207V31.1873L424.288 22.1873V16.354L453.267 26.3332V36.8748L424.288 46.854Z" fill="currentColor"/>
</svg>
